<!DOCTYPE svg PUBLIC "-//W3C//DTD SVG 1.1//EN"
    "http://www.w3.org/Graphics/SVG/1.1/DTD/svg11.dtd" >
<svg contentScriptType="text/ecmascript" width="800px"
     xmlns:xlink="http://www.w3.org/1999/xlink" zoomAndPan="magnify"
     style="height: 600px;" contentStyleType="text/css" id="chart_svg"
     height="600px" preserveAspectRatio="xMidYMid meet"
     xmlns="http://www.w3.org/2000/svg" version="1.0">
    <defs>
        <g>
            <g>
                <clipPath id="clip-1">
                    <rect x="43.296875" width="752.703125" y="35" height="525"/>
                </clipPath>
            </g>
        </g>
    </defs>
    <g>
        <g>
            <rect fill="rgb(255,255,255)" x="0" width="800" y="0" height="600"/>
            <rect fill="rgb(255,255,255)" x="43.296875" width="752.703125"
                  y="35" height="525"/>
            <line transform="matrix(1.000,0.000,0.000,1.000,0.000,0.000)"
                  x1="96.000" x2="96.000" y1="35.000" y2="560.000"
                  style="stroke-width: 1; stroke-linecap: round; stroke-linejoin: round; "
                  stroke="rgb(230,230,230)"/>
            <line transform="matrix(1.000,0.000,0.000,1.000,0.000,0.000)"
                  x1="96.216" x2="96.216" y1="560.000" y2="562.000"
                  style="stroke-width: 0.5; stroke-linecap: round; stroke-linejoin: round; "
                  stroke="rgb(100,100,100)"/>
            <text x="96.216" fill="rgb(0,0,0)" y="575.000"
                  style="font-family: sans-serif; font-weight: normal; font-style: normal; font-size: 11px"
                  transform="matrix(1.000,0.000,0.000,1.000,0.000,0.000)"
                  text-anchor="middle">
                20000
            </text>
            <line transform="matrix(1.000,0.000,0.000,1.000,0.000,0.000)"
                  x1="167.000" x2="167.000" y1="35.000" y2="560.000"
                  style="stroke-width: 1; stroke-linecap: round; stroke-linejoin: round; "
                  stroke="rgb(230,230,230)"/>
            <line transform="matrix(1.000,0.000,0.000,1.000,0.000,0.000)"
                  x1="166.938" x2="166.938" y1="560.000" y2="562.000"
                  style="stroke-width: 0.5; stroke-linecap: round; stroke-linejoin: round; "
                  stroke="rgb(100,100,100)"/>
            <text x="166.938" fill="rgb(0,0,0)" y="575.000"
                  style="font-family: sans-serif; font-weight: normal; font-style: normal; font-size: 11px"
                  transform="matrix(1.000,0.000,0.000,1.000,0.000,0.000)"
                  text-anchor="middle">
                30000
            </text>
            <line transform="matrix(1.000,0.000,0.000,1.000,0.000,0.000)"
                  x1="238.000" x2="238.000" y1="35.000" y2="560.000"
                  style="stroke-width: 1; stroke-linecap: round; stroke-linejoin: round; "
                  stroke="rgb(230,230,230)"/>
            <line transform="matrix(1.000,0.000,0.000,1.000,0.000,0.000)"
                  x1="237.661" x2="237.661" y1="560.000" y2="562.000"
                  style="stroke-width: 0.5; stroke-linecap: round; stroke-linejoin: round; "
                  stroke="rgb(100,100,100)"/>
            <text x="237.661" fill="rgb(0,0,0)" y="575.000"
                  style="font-family: sans-serif; font-weight: normal; font-style: normal; font-size: 11px"
                  transform="matrix(1.000,0.000,0.000,1.000,0.000,0.000)"
                  text-anchor="middle">
                40000
            </text>
            <line transform="matrix(1.000,0.000,0.000,1.000,0.000,0.000)"
                  x1="308.000" x2="308.000" y1="35.000" y2="560.000"
                  style="stroke-width: 1; stroke-linecap: round; stroke-linejoin: round; "
                  stroke="rgb(230,230,230)"/>
            <line transform="matrix(1.000,0.000,0.000,1.000,0.000,0.000)"
                  x1="308.384" x2="308.384" y1="560.000" y2="562.000"
                  style="stroke-width: 0.5; stroke-linecap: round; stroke-linejoin: round; "
                  stroke="rgb(100,100,100)"/>
            <text x="308.384" fill="rgb(0,0,0)" y="575.000"
                  style="font-family: sans-serif; font-weight: normal; font-style: normal; font-size: 11px"
                  transform="matrix(1.000,0.000,0.000,1.000,0.000,0.000)"
                  text-anchor="middle">
                50000
            </text>
            <line transform="matrix(1.000,0.000,0.000,1.000,0.000,0.000)"
                  x1="379.000" x2="379.000" y1="35.000" y2="560.000"
                  style="stroke-width: 1; stroke-linecap: round; stroke-linejoin: round; "
                  stroke="rgb(230,230,230)"/>
            <line transform="matrix(1.000,0.000,0.000,1.000,0.000,0.000)"
                  x1="379.106" x2="379.106" y1="560.000" y2="562.000"
                  style="stroke-width: 0.5; stroke-linecap: round; stroke-linejoin: round; "
                  stroke="rgb(100,100,100)"/>
            <text x="379.106" fill="rgb(0,0,0)" y="575.000"
                  style="font-family: sans-serif; font-weight: normal; font-style: normal; font-size: 11px"
                  transform="matrix(1.000,0.000,0.000,1.000,0.000,0.000)"
                  text-anchor="middle">
                60000
            </text>
            <line transform="matrix(1.000,0.000,0.000,1.000,0.000,0.000)"
                  x1="450.000" x2="450.000" y1="35.000" y2="560.000"
                  style="stroke-width: 1; stroke-linecap: round; stroke-linejoin: round; "
                  stroke="rgb(230,230,230)"/>
            <line transform="matrix(1.000,0.000,0.000,1.000,0.000,0.000)"
                  x1="449.829" x2="449.829" y1="560.000" y2="562.000"
                  style="stroke-width: 0.5; stroke-linecap: round; stroke-linejoin: round; "
                  stroke="rgb(100,100,100)"/>
            <text x="449.829" fill="rgb(0,0,0)" y="575.000"
                  style="font-family: sans-serif; font-weight: normal; font-style: normal; font-size: 11px"
                  transform="matrix(1.000,0.000,0.000,1.000,0.000,0.000)"
                  text-anchor="middle">
                70000
            </text>
            <line transform="matrix(1.000,0.000,0.000,1.000,0.000,0.000)"
                  x1="521.000" x2="521.000" y1="35.000" y2="560.000"
                  style="stroke-width: 1; stroke-linecap: round; stroke-linejoin: round; "
                  stroke="rgb(230,230,230)"/>
            <line transform="matrix(1.000,0.000,0.000,1.000,0.000,0.000)"
                  x1="520.552" x2="520.552" y1="560.000" y2="562.000"
                  style="stroke-width: 0.5; stroke-linecap: round; stroke-linejoin: round; "
                  stroke="rgb(100,100,100)"/>
            <text x="520.552" fill="rgb(0,0,0)" y="575.000"
                  style="font-family: sans-serif; font-weight: normal; font-style: normal; font-size: 11px"
                  transform="matrix(1.000,0.000,0.000,1.000,0.000,0.000)"
                  text-anchor="middle">
                80000
            </text>
            <line transform="matrix(1.000,0.000,0.000,1.000,0.000,0.000)"
                  x1="591.000" x2="591.000" y1="35.000" y2="560.000"
                  style="stroke-width: 1; stroke-linecap: round; stroke-linejoin: round; "
                  stroke="rgb(230,230,230)"/>
            <line transform="matrix(1.000,0.000,0.000,1.000,0.000,0.000)"
                  x1="591.274" x2="591.274" y1="560.000" y2="562.000"
                  style="stroke-width: 0.5; stroke-linecap: round; stroke-linejoin: round; "
                  stroke="rgb(100,100,100)"/>
            <text x="591.274" fill="rgb(0,0,0)" y="575.000"
                  style="font-family: sans-serif; font-weight: normal; font-style: normal; font-size: 11px"
                  transform="matrix(1.000,0.000,0.000,1.000,0.000,0.000)"
                  text-anchor="middle">
                90000
            </text>
            <line transform="matrix(1.000,0.000,0.000,1.000,0.000,0.000)"
                  x1="662.000" x2="662.000" y1="35.000" y2="560.000"
                  style="stroke-width: 1; stroke-linecap: round; stroke-linejoin: round; "
                  stroke="rgb(230,230,230)"/>
            <line transform="matrix(1.000,0.000,0.000,1.000,0.000,0.000)"
                  x1="661.997" x2="661.997" y1="560.000" y2="562.000"
                  style="stroke-width: 0.5; stroke-linecap: round; stroke-linejoin: round; "
                  stroke="rgb(100,100,100)"/>
            <text x="661.997" fill="rgb(0,0,0)" y="575.000"
                  style="font-family: sans-serif; font-weight: normal; font-style: normal; font-size: 11px"
                  transform="matrix(1.000,0.000,0.000,1.000,0.000,0.000)"
                  text-anchor="middle">
                100000
            </text>
            <line transform="matrix(1.000,0.000,0.000,1.000,0.000,0.000)"
                  x1="733.000" x2="733.000" y1="35.000" y2="560.000"
                  style="stroke-width: 1; stroke-linecap: round; stroke-linejoin: round; "
                  stroke="rgb(230,230,230)"/>
            <line transform="matrix(1.000,0.000,0.000,1.000,0.000,0.000)"
                  x1="732.719" x2="732.719" y1="560.000" y2="562.000"
                  style="stroke-width: 0.5; stroke-linecap: round; stroke-linejoin: round; "
                  stroke="rgb(100,100,100)"/>
            <text x="732.719" fill="rgb(0,0,0)" y="575.000"
                  style="font-family: sans-serif; font-weight: normal; font-style: normal; font-size: 11px"
                  transform="matrix(1.000,0.000,0.000,1.000,0.000,0.000)"
                  text-anchor="middle">
                110000
            </text>
            <line transform="matrix(1.000,0.000,0.000,1.000,0.000,0.000)"
                  x1="43.297" x2="796.000" y1="560.000" y2="560.000"
                  style="stroke-width: 0.5; stroke-linecap: round; stroke-linejoin: round; "
                  stroke="rgb(100,100,100)"/>
            <text x="419.648" fill="rgb(0,0,0)" y="591.000"
                  style="font-family: sans-serif; font-weight: bold; font-style: normal; font-size: 12px"
                  transform="matrix(1.000,0.000,0.000,1.000,0.000,0.000)"
                  text-anchor="middle">
                gdppc
            </text>
            <line transform="matrix(1.000,0.000,0.000,1.000,0.000,0.000)"
                  x1="43.297" x2="796.000" y1="536.000" y2="536.000"
                  style="stroke-width: 1; stroke-linecap: round; stroke-linejoin: round; "
                  stroke="rgb(230,230,230)"/>
            <line transform="matrix(1.000,0.000,0.000,1.000,0.000,0.000)"
                  x1="41.297" x2="43.297" y1="536.136" y2="536.136"
                  style="stroke-width: 0.5; stroke-linecap: round; stroke-linejoin: round; "
                  stroke="rgb(100,100,100)"/>
            <text x="39.297" fill="rgb(0,0,0)" y="541.636"
                  style="font-family: sans-serif; font-weight: normal; font-style: normal; font-size: 11px"
                  transform="matrix(1.000,0.000,0.000,1.000,0.000,0.000)"
                  text-anchor="end">
                5.4
            </text>
            <line transform="matrix(1.000,0.000,0.000,1.000,0.000,0.000)"
                  x1="43.297" x2="796.000" y1="501.000" y2="501.000"
                  style="stroke-width: 1; stroke-linecap: round; stroke-linejoin: round; "
                  stroke="rgb(230,230,230)"/>
            <line transform="matrix(1.000,0.000,0.000,1.000,0.000,0.000)"
                  x1="41.297" x2="43.297" y1="500.783" y2="500.783"
                  style="stroke-width: 0.5; stroke-linecap: round; stroke-linejoin: round; "
                  stroke="rgb(100,100,100)"/>
            <text x="39.297" fill="rgb(0,0,0)" y="506.283"
                  style="font-family: sans-serif; font-weight: normal; font-style: normal; font-size: 11px"
                  transform="matrix(1.000,0.000,0.000,1.000,0.000,0.000)"
                  text-anchor="end">
                5.6
            </text>
            <line transform="matrix(1.000,0.000,0.000,1.000,0.000,0.000)"
                  x1="43.297" x2="796.000" y1="465.000" y2="465.000"
                  style="stroke-width: 1; stroke-linecap: round; stroke-linejoin: round; "
                  stroke="rgb(230,230,230)"/>
            <line transform="matrix(1.000,0.000,0.000,1.000,0.000,0.000)"
                  x1="41.297" x2="43.297" y1="465.429" y2="465.429"
                  style="stroke-width: 0.5; stroke-linecap: round; stroke-linejoin: round; "
                  stroke="rgb(100,100,100)"/>
            <text x="39.297" fill="rgb(0,0,0)" y="470.929"
                  style="font-family: sans-serif; font-weight: normal; font-style: normal; font-size: 11px"
                  transform="matrix(1.000,0.000,0.000,1.000,0.000,0.000)"
                  text-anchor="end">
                5.8
            </text>
            <line transform="matrix(1.000,0.000,0.000,1.000,0.000,0.000)"
                  x1="43.297" x2="796.000" y1="430.000" y2="430.000"
                  style="stroke-width: 1; stroke-linecap: round; stroke-linejoin: round; "
                  stroke="rgb(230,230,230)"/>
            <line transform="matrix(1.000,0.000,0.000,1.000,0.000,0.000)"
                  x1="41.297" x2="43.297" y1="430.076" y2="430.076"
                  style="stroke-width: 0.5; stroke-linecap: round; stroke-linejoin: round; "
                  stroke="rgb(100,100,100)"/>
            <text x="39.297" fill="rgb(0,0,0)" y="435.576"
                  style="font-family: sans-serif; font-weight: normal; font-style: normal; font-size: 11px"
                  transform="matrix(1.000,0.000,0.000,1.000,0.000,0.000)"
                  text-anchor="end">
                6.0
            </text>
            <line transform="matrix(1.000,0.000,0.000,1.000,0.000,0.000)"
                  x1="43.297" x2="796.000" y1="395.000" y2="395.000"
                  style="stroke-width: 1; stroke-linecap: round; stroke-linejoin: round; "
                  stroke="rgb(230,230,230)"/>
            <line transform="matrix(1.000,0.000,0.000,1.000,0.000,0.000)"
                  x1="41.297" x2="43.297" y1="394.722" y2="394.722"
                  style="stroke-width: 0.5; stroke-linecap: round; stroke-linejoin: round; "
                  stroke="rgb(100,100,100)"/>
            <text x="39.297" fill="rgb(0,0,0)" y="400.222"
                  style="font-family: sans-serif; font-weight: normal; font-style: normal; font-size: 11px"
                  transform="matrix(1.000,0.000,0.000,1.000,0.000,0.000)"
                  text-anchor="end">
                6.2
            </text>
            <line transform="matrix(1.000,0.000,0.000,1.000,0.000,0.000)"
                  x1="43.297" x2="796.000" y1="359.000" y2="359.000"
                  style="stroke-width: 1; stroke-linecap: round; stroke-linejoin: round; "
                  stroke="rgb(230,230,230)"/>
            <line transform="matrix(1.000,0.000,0.000,1.000,0.000,0.000)"
                  x1="41.297" x2="43.297" y1="359.369" y2="359.369"
                  style="stroke-width: 0.5; stroke-linecap: round; stroke-linejoin: round; "
                  stroke="rgb(100,100,100)"/>
            <text x="39.297" fill="rgb(0,0,0)" y="364.869"
                  style="font-family: sans-serif; font-weight: normal; font-style: normal; font-size: 11px"
                  transform="matrix(1.000,0.000,0.000,1.000,0.000,0.000)"
                  text-anchor="end">
                6.4
            </text>
            <line transform="matrix(1.000,0.000,0.000,1.000,0.000,0.000)"
                  x1="43.297" x2="796.000" y1="324.000" y2="324.000"
                  style="stroke-width: 1; stroke-linecap: round; stroke-linejoin: round; "
                  stroke="rgb(230,230,230)"/>
            <line transform="matrix(1.000,0.000,0.000,1.000,0.000,0.000)"
                  x1="41.297" x2="43.297" y1="324.015" y2="324.015"
                  style="stroke-width: 0.5; stroke-linecap: round; stroke-linejoin: round; "
                  stroke="rgb(100,100,100)"/>
            <text x="39.297" fill="rgb(0,0,0)" y="329.515"
                  style="font-family: sans-serif; font-weight: normal; font-style: normal; font-size: 11px"
                  transform="matrix(1.000,0.000,0.000,1.000,0.000,0.000)"
                  text-anchor="end">
                6.6
            </text>
            <line transform="matrix(1.000,0.000,0.000,1.000,0.000,0.000)"
                  x1="43.297" x2="796.000" y1="289.000" y2="289.000"
                  style="stroke-width: 1; stroke-linecap: round; stroke-linejoin: round; "
                  stroke="rgb(230,230,230)"/>
            <line transform="matrix(1.000,0.000,0.000,1.000,0.000,0.000)"
                  x1="41.297" x2="43.297" y1="288.662" y2="288.662"
                  style="stroke-width: 0.5; stroke-linecap: round; stroke-linejoin: round; "
                  stroke="rgb(100,100,100)"/>
            <text x="39.297" fill="rgb(0,0,0)" y="294.162"
                  style="font-family: sans-serif; font-weight: normal; font-style: normal; font-size: 11px"
                  transform="matrix(1.000,0.000,0.000,1.000,0.000,0.000)"
                  text-anchor="end">
                6.8
            </text>
            <line transform="matrix(1.000,0.000,0.000,1.000,0.000,0.000)"
                  x1="43.297" x2="796.000" y1="253.000" y2="253.000"
                  style="stroke-width: 1; stroke-linecap: round; stroke-linejoin: round; "
                  stroke="rgb(230,230,230)"/>
            <line transform="matrix(1.000,0.000,0.000,1.000,0.000,0.000)"
                  x1="41.297" x2="43.297" y1="253.308" y2="253.308"
                  style="stroke-width: 0.5; stroke-linecap: round; stroke-linejoin: round; "
                  stroke="rgb(100,100,100)"/>
            <text x="39.297" fill="rgb(0,0,0)" y="258.808"
                  style="font-family: sans-serif; font-weight: normal; font-style: normal; font-size: 11px"
                  transform="matrix(1.000,0.000,0.000,1.000,0.000,0.000)"
                  text-anchor="end">
                7.0
            </text>
            <line transform="matrix(1.000,0.000,0.000,1.000,0.000,0.000)"
                  x1="43.297" x2="796.000" y1="218.000" y2="218.000"
                  style="stroke-width: 1; stroke-linecap: round; stroke-linejoin: round; "
                  stroke="rgb(230,230,230)"/>
            <line transform="matrix(1.000,0.000,0.000,1.000,0.000,0.000)"
                  x1="41.297" x2="43.297" y1="217.955" y2="217.955"
                  style="stroke-width: 0.5; stroke-linecap: round; stroke-linejoin: round; "
                  stroke="rgb(100,100,100)"/>
            <text x="39.297" fill="rgb(0,0,0)" y="223.455"
                  style="font-family: sans-serif; font-weight: normal; font-style: normal; font-size: 11px"
                  transform="matrix(1.000,0.000,0.000,1.000,0.000,0.000)"
                  text-anchor="end">
                7.2
            </text>
            <line transform="matrix(1.000,0.000,0.000,1.000,0.000,0.000)"
                  x1="43.297" x2="796.000" y1="183.000" y2="183.000"
                  style="stroke-width: 1; stroke-linecap: round; stroke-linejoin: round; "
                  stroke="rgb(230,230,230)"/>
            <line transform="matrix(1.000,0.000,0.000,1.000,0.000,0.000)"
                  x1="41.297" x2="43.297" y1="182.601" y2="182.601"
                  style="stroke-width: 0.5; stroke-linecap: round; stroke-linejoin: round; "
                  stroke="rgb(100,100,100)"/>
            <text x="39.297" fill="rgb(0,0,0)" y="188.101"
                  style="font-family: sans-serif; font-weight: normal; font-style: normal; font-size: 11px"
                  transform="matrix(1.000,0.000,0.000,1.000,0.000,0.000)"
                  text-anchor="end">
                7.4
            </text>
            <line transform="matrix(1.000,0.000,0.000,1.000,0.000,0.000)"
                  x1="43.297" x2="796.000" y1="147.000" y2="147.000"
                  style="stroke-width: 1; stroke-linecap: round; stroke-linejoin: round; "
                  stroke="rgb(230,230,230)"/>
            <line transform="matrix(1.000,0.000,0.000,1.000,0.000,0.000)"
                  x1="41.297" x2="43.297" y1="147.247" y2="147.247"
                  style="stroke-width: 0.5; stroke-linecap: round; stroke-linejoin: round; "
                  stroke="rgb(100,100,100)"/>
            <text x="39.297" fill="rgb(0,0,0)" y="152.747"
                  style="font-family: sans-serif; font-weight: normal; font-style: normal; font-size: 11px"
                  transform="matrix(1.000,0.000,0.000,1.000,0.000,0.000)"
                  text-anchor="end">
                7.6
            </text>
            <line transform="matrix(1.000,0.000,0.000,1.000,0.000,0.000)"
                  x1="43.297" x2="796.000" y1="112.000" y2="112.000"
                  style="stroke-width: 1; stroke-linecap: round; stroke-linejoin: round; "
                  stroke="rgb(230,230,230)"/>
            <line transform="matrix(1.000,0.000,0.000,1.000,0.000,0.000)"
                  x1="41.297" x2="43.297" y1="111.894" y2="111.894"
                  style="stroke-width: 0.5; stroke-linecap: round; stroke-linejoin: round; "
                  stroke="rgb(100,100,100)"/>
            <text x="39.297" fill="rgb(0,0,0)" y="117.394"
                  style="font-family: sans-serif; font-weight: normal; font-style: normal; font-size: 11px"
                  transform="matrix(1.000,0.000,0.000,1.000,0.000,0.000)"
                  text-anchor="end">
                7.8
            </text>
            <line transform="matrix(1.000,0.000,0.000,1.000,0.000,0.000)"
                  x1="43.297" x2="796.000" y1="77.000" y2="77.000"
                  style="stroke-width: 1; stroke-linecap: round; stroke-linejoin: round; "
                  stroke="rgb(230,230,230)"/>
            <line transform="matrix(1.000,0.000,0.000,1.000,0.000,0.000)"
                  x1="41.297" x2="43.297" y1="76.540" y2="76.540"
                  style="stroke-width: 0.5; stroke-linecap: round; stroke-linejoin: round; "
                  stroke="rgb(100,100,100)"/>
            <text x="39.297" fill="rgb(0,0,0)" y="82.040"
                  style="font-family: sans-serif; font-weight: normal; font-style: normal; font-size: 11px"
                  transform="matrix(1.000,0.000,0.000,1.000,0.000,0.000)"
                  text-anchor="end">
                8.0
            </text>
            <line transform="matrix(1.000,0.000,0.000,1.000,0.000,0.000)"
                  x1="43.297" x2="796.000" y1="41.000" y2="41.000"
                  style="stroke-width: 1; stroke-linecap: round; stroke-linejoin: round; "
                  stroke="rgb(230,230,230)"/>
            <line transform="matrix(1.000,0.000,0.000,1.000,0.000,0.000)"
                  x1="41.297" x2="43.297" y1="41.187" y2="41.187"
                  style="stroke-width: 0.5; stroke-linecap: round; stroke-linejoin: round; "
                  stroke="rgb(100,100,100)"/>
            <text x="39.297" fill="rgb(0,0,0)" y="46.687"
                  style="font-family: sans-serif; font-weight: normal; font-style: normal; font-size: 11px"
                  transform="matrix(1.000,0.000,0.000,1.000,0.000,0.000)"
                  text-anchor="end">
                8.2
            </text>
            <line transform="matrix(1.000,0.000,0.000,1.000,0.000,0.000)"
                  x1="43.297" x2="43.297" y1="35.000" y2="560.000"
                  style="stroke-width: 0.5; stroke-linecap: round; stroke-linejoin: round; "
                  stroke="rgb(100,100,100)"/>
            <text x="0.000" fill="rgb(0,0,0)" y="0.000"
                  style="font-family: sans-serif; font-weight: bold; font-style: normal; font-size: 12px"
                  transform="matrix(0.000,-1.000,1.000,0.000,20.000,297.500)"
                  text-anchor="middle">
                satisfaction_2018
            </text>
            <g class="dataArea" clip-path="url(#clip-1)">
                <rect fill="rgb(0, 0, 0)" x="43.296875" width="752.703125"
                      y="35" height="525" fill-opacity="0"/>
                <circle fill="rgb(64,64,64)" r="3" stroke-width="0.2"
                        cx="348.6050152646256" cy="76.54040404040393"
                        stroke="rgb(0,0,0)"/>
                <circle fill="rgb(64,64,64)" r="3" stroke-width="0.2"
                        cx="317.1957361504585" cy="147.2474747474747"
                        stroke="rgb(0,0,0)"/>
                <circle fill="rgb(64,64,64)" r="3" stroke-width="0.2"
                        cx="111.64399288531061" cy="536.1363636363636"
                        stroke="rgb(0,0,0)"/>
                <circle fill="rgb(64,64,64)" r="3" stroke-width="0.2"
                        cx="439.07516038658923" cy="76.54040404040393"
                        stroke="rgb(0,0,0)"/>
                <circle fill="rgb(64,64,64)" r="3" stroke-width="0.2"
                        cx="229.33346402736464" cy="235.63131313131316"
                        stroke="rgb(0,0,0)"/>
                <circle fill="rgb(64,64,64)" r="3" stroke-width="0.2"
                        cx="233.7909402338604" cy="182.60101010101"
                        stroke="rgb(0,0,0)"/>
                <circle fill="rgb(64,64,64)" r="3" stroke-width="0.2"
                        cx="334.26812665193773" cy="182.60101010101"
                        stroke="rgb(0,0,0)"/>
                <circle fill="rgb(64,64,64)" r="3" stroke-width="0.2"
                        cx="351.54447821049376" cy="111.89393939393938"
                        stroke="rgb(0,0,0)"/>
                <circle fill="rgb(64,64,64)" r="3" stroke-width="0.2"
                        cx="204.47866713465086" cy="253.30808080808077"
                        stroke="rgb(0,0,0)"/>
                <circle fill="rgb(64,64,64)" r="3" stroke-width="0.2"
                        cx="164.90112936257032" cy="359.36868686868684"
                        stroke="rgb(0,0,0)"/>
                <circle fill="rgb(64,64,64)" r="3" stroke-width="0.2"
                        cx="239.9874439388945" cy="200.27777777777777"
                        stroke="rgb(0,0,0)"/>
                <circle fill="rgb(64,64,64)" r="3" stroke-width="0.2"
                        cx="295.5916481708012" cy="58.86363636363632"
                        stroke="rgb(0,0,0)"/>
                <circle fill="rgb(64,64,64)" r="3" stroke-width="0.2"
                        cx="276.9899681395682" cy="200.27777777777777"
                        stroke="rgb(0,0,0)"/>
                <circle fill="rgb(64,64,64)" r="3" stroke-width="0.2"
                        cx="149.6647599560875" cy="377.0454545454546"
                        stroke="rgb(0,0,0)"/>
                <circle fill="rgb(64,64,64)" r="3" stroke-width="0.2"
                        cx="174.52635354687243" cy="341.69191919191917"
                        stroke="rgb(0,0,0)"/>
                <circle fill="rgb(64,64,64)" r="3" stroke-width="0.2"
                        cx="545.0967338369289" cy="58.86363636363632"
                        stroke="rgb(0,0,0)"/>
                <circle fill="rgb(64,64,64)" r="3" stroke-width="0.2"
                        cx="351.9312736899799" cy="94.2171717171716"
                        stroke="rgb(0,0,0)"/>
                <circle fill="rgb(64,64,64)" r="3" stroke-width="0.2"
                        cx="253.2076600896506" cy="235.63131313131316"
                        stroke="rgb(0,0,0)"/>
                <circle fill="rgb(64,64,64)" r="3" stroke-width="0.2"
                        cx="205.0578236326506" cy="359.36868686868684"
                        stroke="rgb(0,0,0)"/>
                <circle fill="rgb(64,64,64)" r="3" stroke-width="0.2"
                        cx="761.7862215909091" cy="147.2474747474747"
                        stroke="rgb(0,0,0)"/>
                <circle fill="rgb(64,64,64)" r="3" stroke-width="0.2"
                        cx="166.52835383093097" cy="306.33838383838383"
                        stroke="rgb(0,0,0)"/>
                <circle fill="rgb(64,64,64)" r="3" stroke-width="0.2"
                        cx="259.3306517018326" cy="164.92424242424238"
                        stroke="rgb(0,0,0)"/>
                <circle fill="rgb(64,64,64)" r="3" stroke-width="0.2"
                        cx="354.0346445948574" cy="129.570707070707"
                        stroke="rgb(0,0,0)"/>
                <circle fill="rgb(64,64,64)" r="3" stroke-width="0.2"
                        cx="402.67677364988026" cy="76.54040404040393"
                        stroke="rgb(0,0,0)"/>
                <circle fill="rgb(64,64,64)" r="3" stroke-width="0.2"
                        cx="179.42586391336584" cy="111.89393939393938"
                        stroke="rgb(0,0,0)"/>
                <circle fill="rgb(64,64,64)" r="3" stroke-width="0.2"
                        cx="195.31998148744213" cy="306.33838383838383"
                        stroke="rgb(0,0,0)"/>
                <circle fill="rgb(64,64,64)" r="3" stroke-width="0.2"
                        cx="156.79308041102777" cy="200.27777777777777"
                        stroke="rgb(0,0,0)"/>
                <circle fill="rgb(64,64,64)" r="3" stroke-width="0.2"
                        cx="77.5106534090909" cy="500.7828282828284"
                        stroke="rgb(0,0,0)"/>
                <circle fill="rgb(64,64,64)" r="3" stroke-width="0.2"
                        cx="330.636320903666" cy="111.89393939393938"
                        stroke="rgb(0,0,0)"/>
                <circle fill="rgb(64,64,64)" r="3" stroke-width="0.2"
                        cx="223.67252771143916" cy="200.27777777777777"
                        stroke="rgb(0,0,0)"/>
                <circle fill="rgb(64,64,64)" r="3" stroke-width="0.2"
                        cx="181.55939927075897" cy="235.63131313131316"
                        stroke="rgb(0,0,0)"/>
                <circle fill="rgb(64,64,64)" r="3" stroke-width="0.2"
                        cx="154.90762699757607" cy="483.1060606060606"
                        stroke="rgb(0,0,0)"/>
                <circle fill="rgb(64,64,64)" r="3" stroke-width="0.2"
                        cx="282.2856819791206" cy="147.2474747474747"
                        stroke="rgb(0,0,0)"/>
            </g>
            <rect fill="rgb(255,255,255)" x="0" width="376.171875" y="0"
                  height="31" fill-opacity="0.001"/>
            <text x="2"
                  style="font-family: sans-serif; font-weight: normal; font-style: normal; font-size: 24px"
                  y="24.14">
                Satisfaction versus GDP per capita
            </text>
        </g>
    </g>
    <g visibility="hidden" id="hiddenGroup"/>
</svg>