<!DOCTYPE svg PUBLIC "-//W3C//DTD SVG 1.1//EN"
    "http://www.w3.org/Graphics/SVG/1.1/DTD/svg11.dtd" >
<svg contentScriptType="text/ecmascript" width="800px"
     xmlns:xlink="http://www.w3.org/1999/xlink" zoomAndPan="magnify"
     style="height: 600px;" contentStyleType="text/css" id="chart_svg"
     height="600px" preserveAspectRatio="xMidYMid meet"
     xmlns="http://www.w3.org/2000/svg" version="1.0">
    <defs>
        <g>
            <g>
                <clipPath id="clip-1">
                    <rect x="43.296875" width="752.703125" y="35" height="525"/>
                </clipPath>
            </g>
        </g>
    </defs>
    <g>
        <g>
            <rect fill="rgb(255,255,255)" x="0" width="800" y="0" height="600"/>
            <rect fill="rgb(255,255,255)" x="43.296875" width="752.703125"
                  y="35" height="525"/>
            <line transform="matrix(1.000,0.000,0.000,1.000,0.000,0.000)"
                  x1="75.000" x2="75.000" y1="35.000" y2="560.000"
                  style="stroke-width: 1; stroke-linecap: round; stroke-linejoin: round; "
                  stroke="rgb(230,230,230)"/>
            <line transform="matrix(1.000,0.000,0.000,1.000,0.000,0.000)"
                  x1="74.587" x2="74.587" y1="560.000" y2="562.000"
                  style="stroke-width: 0.5; stroke-linecap: round; stroke-linejoin: round; "
                  stroke="rgb(100,100,100)"/>
            <text x="74.587" fill="rgb(0,0,0)" y="575.000"
                  style="font-family: sans-serif; font-weight: normal; font-style: normal; font-size: 11px"
                  transform="matrix(1.000,0.000,0.000,1.000,0.000,0.000)"
                  text-anchor="middle">
                0
            </text>
            <line transform="matrix(1.000,0.000,0.000,1.000,0.000,0.000)"
                  x1="157.000" x2="157.000" y1="35.000" y2="560.000"
                  style="stroke-width: 1; stroke-linecap: round; stroke-linejoin: round; "
                  stroke="rgb(230,230,230)"/>
            <line transform="matrix(1.000,0.000,0.000,1.000,0.000,0.000)"
                  x1="157.476" x2="157.476" y1="560.000" y2="562.000"
                  style="stroke-width: 0.5; stroke-linecap: round; stroke-linejoin: round; "
                  stroke="rgb(100,100,100)"/>
            <text x="157.476" fill="rgb(0,0,0)" y="575.000"
                  style="font-family: sans-serif; font-weight: normal; font-style: normal; font-size: 11px"
                  transform="matrix(1.000,0.000,0.000,1.000,0.000,0.000)"
                  text-anchor="middle">
                10000000
            </text>
            <line transform="matrix(1.000,0.000,0.000,1.000,0.000,0.000)"
                  x1="240.000" x2="240.000" y1="35.000" y2="560.000"
                  style="stroke-width: 1; stroke-linecap: round; stroke-linejoin: round; "
                  stroke="rgb(230,230,230)"/>
            <line transform="matrix(1.000,0.000,0.000,1.000,0.000,0.000)"
                  x1="240.365" x2="240.365" y1="560.000" y2="562.000"
                  style="stroke-width: 0.5; stroke-linecap: round; stroke-linejoin: round; "
                  stroke="rgb(100,100,100)"/>
            <text x="240.365" fill="rgb(0,0,0)" y="575.000"
                  style="font-family: sans-serif; font-weight: normal; font-style: normal; font-size: 11px"
                  transform="matrix(1.000,0.000,0.000,1.000,0.000,0.000)"
                  text-anchor="middle">
                20000000
            </text>
            <line transform="matrix(1.000,0.000,0.000,1.000,0.000,0.000)"
                  x1="323.000" x2="323.000" y1="35.000" y2="560.000"
                  style="stroke-width: 1; stroke-linecap: round; stroke-linejoin: round; "
                  stroke="rgb(230,230,230)"/>
            <line transform="matrix(1.000,0.000,0.000,1.000,0.000,0.000)"
                  x1="323.255" x2="323.255" y1="560.000" y2="562.000"
                  style="stroke-width: 0.5; stroke-linecap: round; stroke-linejoin: round; "
                  stroke="rgb(100,100,100)"/>
            <text x="323.255" fill="rgb(0,0,0)" y="575.000"
                  style="font-family: sans-serif; font-weight: normal; font-style: normal; font-size: 11px"
                  transform="matrix(1.000,0.000,0.000,1.000,0.000,0.000)"
                  text-anchor="middle">
                30000000
            </text>
            <line transform="matrix(1.000,0.000,0.000,1.000,0.000,0.000)"
                  x1="406.000" x2="406.000" y1="35.000" y2="560.000"
                  style="stroke-width: 1; stroke-linecap: round; stroke-linejoin: round; "
                  stroke="rgb(230,230,230)"/>
            <line transform="matrix(1.000,0.000,0.000,1.000,0.000,0.000)"
                  x1="406.144" x2="406.144" y1="560.000" y2="562.000"
                  style="stroke-width: 0.5; stroke-linecap: round; stroke-linejoin: round; "
                  stroke="rgb(100,100,100)"/>
            <text x="406.144" fill="rgb(0,0,0)" y="575.000"
                  style="font-family: sans-serif; font-weight: normal; font-style: normal; font-size: 11px"
                  transform="matrix(1.000,0.000,0.000,1.000,0.000,0.000)"
                  text-anchor="middle">
                40000000
            </text>
            <line transform="matrix(1.000,0.000,0.000,1.000,0.000,0.000)"
                  x1="489.000" x2="489.000" y1="35.000" y2="560.000"
                  style="stroke-width: 1; stroke-linecap: round; stroke-linejoin: round; "
                  stroke="rgb(230,230,230)"/>
            <line transform="matrix(1.000,0.000,0.000,1.000,0.000,0.000)"
                  x1="489.033" x2="489.033" y1="560.000" y2="562.000"
                  style="stroke-width: 0.5; stroke-linecap: round; stroke-linejoin: round; "
                  stroke="rgb(100,100,100)"/>
            <text x="489.033" fill="rgb(0,0,0)" y="575.000"
                  style="font-family: sans-serif; font-weight: normal; font-style: normal; font-size: 11px"
                  transform="matrix(1.000,0.000,0.000,1.000,0.000,0.000)"
                  text-anchor="middle">
                50000000
            </text>
            <line transform="matrix(1.000,0.000,0.000,1.000,0.000,0.000)"
                  x1="572.000" x2="572.000" y1="35.000" y2="560.000"
                  style="stroke-width: 1; stroke-linecap: round; stroke-linejoin: round; "
                  stroke="rgb(230,230,230)"/>
            <line transform="matrix(1.000,0.000,0.000,1.000,0.000,0.000)"
                  x1="571.922" x2="571.922" y1="560.000" y2="562.000"
                  style="stroke-width: 0.5; stroke-linecap: round; stroke-linejoin: round; "
                  stroke="rgb(100,100,100)"/>
            <text x="571.922" fill="rgb(0,0,0)" y="575.000"
                  style="font-family: sans-serif; font-weight: normal; font-style: normal; font-size: 11px"
                  transform="matrix(1.000,0.000,0.000,1.000,0.000,0.000)"
                  text-anchor="middle">
                60000000
            </text>
            <line transform="matrix(1.000,0.000,0.000,1.000,0.000,0.000)"
                  x1="655.000" x2="655.000" y1="35.000" y2="560.000"
                  style="stroke-width: 1; stroke-linecap: round; stroke-linejoin: round; "
                  stroke="rgb(230,230,230)"/>
            <line transform="matrix(1.000,0.000,0.000,1.000,0.000,0.000)"
                  x1="654.811" x2="654.811" y1="560.000" y2="562.000"
                  style="stroke-width: 0.5; stroke-linecap: round; stroke-linejoin: round; "
                  stroke="rgb(100,100,100)"/>
            <text x="654.811" fill="rgb(0,0,0)" y="575.000"
                  style="font-family: sans-serif; font-weight: normal; font-style: normal; font-size: 11px"
                  transform="matrix(1.000,0.000,0.000,1.000,0.000,0.000)"
                  text-anchor="middle">
                70000000
            </text>
            <line transform="matrix(1.000,0.000,0.000,1.000,0.000,0.000)"
                  x1="738.000" x2="738.000" y1="35.000" y2="560.000"
                  style="stroke-width: 1; stroke-linecap: round; stroke-linejoin: round; "
                  stroke="rgb(230,230,230)"/>
            <line transform="matrix(1.000,0.000,0.000,1.000,0.000,0.000)"
                  x1="737.700" x2="737.700" y1="560.000" y2="562.000"
                  style="stroke-width: 0.5; stroke-linecap: round; stroke-linejoin: round; "
                  stroke="rgb(100,100,100)"/>
            <text x="737.700" fill="rgb(0,0,0)" y="575.000"
                  style="font-family: sans-serif; font-weight: normal; font-style: normal; font-size: 11px"
                  transform="matrix(1.000,0.000,0.000,1.000,0.000,0.000)"
                  text-anchor="middle">
                80000000
            </text>
            <line transform="matrix(1.000,0.000,0.000,1.000,0.000,0.000)"
                  x1="43.297" x2="796.000" y1="560.000" y2="560.000"
                  style="stroke-width: 0.5; stroke-linecap: round; stroke-linejoin: round; "
                  stroke="rgb(100,100,100)"/>
            <text x="419.648" fill="rgb(0,0,0)" y="591.000"
                  style="font-family: sans-serif; font-weight: bold; font-style: normal; font-size: 12px"
                  transform="matrix(1.000,0.000,0.000,1.000,0.000,0.000)"
                  text-anchor="middle">
                population
            </text>
            <line transform="matrix(1.000,0.000,0.000,1.000,0.000,0.000)"
                  x1="43.297" x2="796.000" y1="536.000" y2="536.000"
                  style="stroke-width: 1; stroke-linecap: round; stroke-linejoin: round; "
                  stroke="rgb(230,230,230)"/>
            <line transform="matrix(1.000,0.000,0.000,1.000,0.000,0.000)"
                  x1="41.297" x2="43.297" y1="536.136" y2="536.136"
                  style="stroke-width: 0.5; stroke-linecap: round; stroke-linejoin: round; "
                  stroke="rgb(100,100,100)"/>
            <text x="39.297" fill="rgb(0,0,0)" y="541.636"
                  style="font-family: sans-serif; font-weight: normal; font-style: normal; font-size: 11px"
                  transform="matrix(1.000,0.000,0.000,1.000,0.000,0.000)"
                  text-anchor="end">
                5.4
            </text>
            <line transform="matrix(1.000,0.000,0.000,1.000,0.000,0.000)"
                  x1="43.297" x2="796.000" y1="501.000" y2="501.000"
                  style="stroke-width: 1; stroke-linecap: round; stroke-linejoin: round; "
                  stroke="rgb(230,230,230)"/>
            <line transform="matrix(1.000,0.000,0.000,1.000,0.000,0.000)"
                  x1="41.297" x2="43.297" y1="500.783" y2="500.783"
                  style="stroke-width: 0.5; stroke-linecap: round; stroke-linejoin: round; "
                  stroke="rgb(100,100,100)"/>
            <text x="39.297" fill="rgb(0,0,0)" y="506.283"
                  style="font-family: sans-serif; font-weight: normal; font-style: normal; font-size: 11px"
                  transform="matrix(1.000,0.000,0.000,1.000,0.000,0.000)"
                  text-anchor="end">
                5.6
            </text>
            <line transform="matrix(1.000,0.000,0.000,1.000,0.000,0.000)"
                  x1="43.297" x2="796.000" y1="465.000" y2="465.000"
                  style="stroke-width: 1; stroke-linecap: round; stroke-linejoin: round; "
                  stroke="rgb(230,230,230)"/>
            <line transform="matrix(1.000,0.000,0.000,1.000,0.000,0.000)"
                  x1="41.297" x2="43.297" y1="465.429" y2="465.429"
                  style="stroke-width: 0.5; stroke-linecap: round; stroke-linejoin: round; "
                  stroke="rgb(100,100,100)"/>
            <text x="39.297" fill="rgb(0,0,0)" y="470.929"
                  style="font-family: sans-serif; font-weight: normal; font-style: normal; font-size: 11px"
                  transform="matrix(1.000,0.000,0.000,1.000,0.000,0.000)"
                  text-anchor="end">
                5.8
            </text>
            <line transform="matrix(1.000,0.000,0.000,1.000,0.000,0.000)"
                  x1="43.297" x2="796.000" y1="430.000" y2="430.000"
                  style="stroke-width: 1; stroke-linecap: round; stroke-linejoin: round; "
                  stroke="rgb(230,230,230)"/>
            <line transform="matrix(1.000,0.000,0.000,1.000,0.000,0.000)"
                  x1="41.297" x2="43.297" y1="430.076" y2="430.076"
                  style="stroke-width: 0.5; stroke-linecap: round; stroke-linejoin: round; "
                  stroke="rgb(100,100,100)"/>
            <text x="39.297" fill="rgb(0,0,0)" y="435.576"
                  style="font-family: sans-serif; font-weight: normal; font-style: normal; font-size: 11px"
                  transform="matrix(1.000,0.000,0.000,1.000,0.000,0.000)"
                  text-anchor="end">
                6.0
            </text>
            <line transform="matrix(1.000,0.000,0.000,1.000,0.000,0.000)"
                  x1="43.297" x2="796.000" y1="395.000" y2="395.000"
                  style="stroke-width: 1; stroke-linecap: round; stroke-linejoin: round; "
                  stroke="rgb(230,230,230)"/>
            <line transform="matrix(1.000,0.000,0.000,1.000,0.000,0.000)"
                  x1="41.297" x2="43.297" y1="394.722" y2="394.722"
                  style="stroke-width: 0.5; stroke-linecap: round; stroke-linejoin: round; "
                  stroke="rgb(100,100,100)"/>
            <text x="39.297" fill="rgb(0,0,0)" y="400.222"
                  style="font-family: sans-serif; font-weight: normal; font-style: normal; font-size: 11px"
                  transform="matrix(1.000,0.000,0.000,1.000,0.000,0.000)"
                  text-anchor="end">
                6.2
            </text>
            <line transform="matrix(1.000,0.000,0.000,1.000,0.000,0.000)"
                  x1="43.297" x2="796.000" y1="359.000" y2="359.000"
                  style="stroke-width: 1; stroke-linecap: round; stroke-linejoin: round; "
                  stroke="rgb(230,230,230)"/>
            <line transform="matrix(1.000,0.000,0.000,1.000,0.000,0.000)"
                  x1="41.297" x2="43.297" y1="359.369" y2="359.369"
                  style="stroke-width: 0.5; stroke-linecap: round; stroke-linejoin: round; "
                  stroke="rgb(100,100,100)"/>
            <text x="39.297" fill="rgb(0,0,0)" y="364.869"
                  style="font-family: sans-serif; font-weight: normal; font-style: normal; font-size: 11px"
                  transform="matrix(1.000,0.000,0.000,1.000,0.000,0.000)"
                  text-anchor="end">
                6.4
            </text>
            <line transform="matrix(1.000,0.000,0.000,1.000,0.000,0.000)"
                  x1="43.297" x2="796.000" y1="324.000" y2="324.000"
                  style="stroke-width: 1; stroke-linecap: round; stroke-linejoin: round; "
                  stroke="rgb(230,230,230)"/>
            <line transform="matrix(1.000,0.000,0.000,1.000,0.000,0.000)"
                  x1="41.297" x2="43.297" y1="324.015" y2="324.015"
                  style="stroke-width: 0.5; stroke-linecap: round; stroke-linejoin: round; "
                  stroke="rgb(100,100,100)"/>
            <text x="39.297" fill="rgb(0,0,0)" y="329.515"
                  style="font-family: sans-serif; font-weight: normal; font-style: normal; font-size: 11px"
                  transform="matrix(1.000,0.000,0.000,1.000,0.000,0.000)"
                  text-anchor="end">
                6.6
            </text>
            <line transform="matrix(1.000,0.000,0.000,1.000,0.000,0.000)"
                  x1="43.297" x2="796.000" y1="289.000" y2="289.000"
                  style="stroke-width: 1; stroke-linecap: round; stroke-linejoin: round; "
                  stroke="rgb(230,230,230)"/>
            <line transform="matrix(1.000,0.000,0.000,1.000,0.000,0.000)"
                  x1="41.297" x2="43.297" y1="288.662" y2="288.662"
                  style="stroke-width: 0.5; stroke-linecap: round; stroke-linejoin: round; "
                  stroke="rgb(100,100,100)"/>
            <text x="39.297" fill="rgb(0,0,0)" y="294.162"
                  style="font-family: sans-serif; font-weight: normal; font-style: normal; font-size: 11px"
                  transform="matrix(1.000,0.000,0.000,1.000,0.000,0.000)"
                  text-anchor="end">
                6.8
            </text>
            <line transform="matrix(1.000,0.000,0.000,1.000,0.000,0.000)"
                  x1="43.297" x2="796.000" y1="253.000" y2="253.000"
                  style="stroke-width: 1; stroke-linecap: round; stroke-linejoin: round; "
                  stroke="rgb(230,230,230)"/>
            <line transform="matrix(1.000,0.000,0.000,1.000,0.000,0.000)"
                  x1="41.297" x2="43.297" y1="253.308" y2="253.308"
                  style="stroke-width: 0.5; stroke-linecap: round; stroke-linejoin: round; "
                  stroke="rgb(100,100,100)"/>
            <text x="39.297" fill="rgb(0,0,0)" y="258.808"
                  style="font-family: sans-serif; font-weight: normal; font-style: normal; font-size: 11px"
                  transform="matrix(1.000,0.000,0.000,1.000,0.000,0.000)"
                  text-anchor="end">
                7.0
            </text>
            <line transform="matrix(1.000,0.000,0.000,1.000,0.000,0.000)"
                  x1="43.297" x2="796.000" y1="218.000" y2="218.000"
                  style="stroke-width: 1; stroke-linecap: round; stroke-linejoin: round; "
                  stroke="rgb(230,230,230)"/>
            <line transform="matrix(1.000,0.000,0.000,1.000,0.000,0.000)"
                  x1="41.297" x2="43.297" y1="217.955" y2="217.955"
                  style="stroke-width: 0.5; stroke-linecap: round; stroke-linejoin: round; "
                  stroke="rgb(100,100,100)"/>
            <text x="39.297" fill="rgb(0,0,0)" y="223.455"
                  style="font-family: sans-serif; font-weight: normal; font-style: normal; font-size: 11px"
                  transform="matrix(1.000,0.000,0.000,1.000,0.000,0.000)"
                  text-anchor="end">
                7.2
            </text>
            <line transform="matrix(1.000,0.000,0.000,1.000,0.000,0.000)"
                  x1="43.297" x2="796.000" y1="183.000" y2="183.000"
                  style="stroke-width: 1; stroke-linecap: round; stroke-linejoin: round; "
                  stroke="rgb(230,230,230)"/>
            <line transform="matrix(1.000,0.000,0.000,1.000,0.000,0.000)"
                  x1="41.297" x2="43.297" y1="182.601" y2="182.601"
                  style="stroke-width: 0.5; stroke-linecap: round; stroke-linejoin: round; "
                  stroke="rgb(100,100,100)"/>
            <text x="39.297" fill="rgb(0,0,0)" y="188.101"
                  style="font-family: sans-serif; font-weight: normal; font-style: normal; font-size: 11px"
                  transform="matrix(1.000,0.000,0.000,1.000,0.000,0.000)"
                  text-anchor="end">
                7.4
            </text>
            <line transform="matrix(1.000,0.000,0.000,1.000,0.000,0.000)"
                  x1="43.297" x2="796.000" y1="147.000" y2="147.000"
                  style="stroke-width: 1; stroke-linecap: round; stroke-linejoin: round; "
                  stroke="rgb(230,230,230)"/>
            <line transform="matrix(1.000,0.000,0.000,1.000,0.000,0.000)"
                  x1="41.297" x2="43.297" y1="147.247" y2="147.247"
                  style="stroke-width: 0.5; stroke-linecap: round; stroke-linejoin: round; "
                  stroke="rgb(100,100,100)"/>
            <text x="39.297" fill="rgb(0,0,0)" y="152.747"
                  style="font-family: sans-serif; font-weight: normal; font-style: normal; font-size: 11px"
                  transform="matrix(1.000,0.000,0.000,1.000,0.000,0.000)"
                  text-anchor="end">
                7.6
            </text>
            <line transform="matrix(1.000,0.000,0.000,1.000,0.000,0.000)"
                  x1="43.297" x2="796.000" y1="112.000" y2="112.000"
                  style="stroke-width: 1; stroke-linecap: round; stroke-linejoin: round; "
                  stroke="rgb(230,230,230)"/>
            <line transform="matrix(1.000,0.000,0.000,1.000,0.000,0.000)"
                  x1="41.297" x2="43.297" y1="111.894" y2="111.894"
                  style="stroke-width: 0.5; stroke-linecap: round; stroke-linejoin: round; "
                  stroke="rgb(100,100,100)"/>
            <text x="39.297" fill="rgb(0,0,0)" y="117.394"
                  style="font-family: sans-serif; font-weight: normal; font-style: normal; font-size: 11px"
                  transform="matrix(1.000,0.000,0.000,1.000,0.000,0.000)"
                  text-anchor="end">
                7.8
            </text>
            <line transform="matrix(1.000,0.000,0.000,1.000,0.000,0.000)"
                  x1="43.297" x2="796.000" y1="77.000" y2="77.000"
                  style="stroke-width: 1; stroke-linecap: round; stroke-linejoin: round; "
                  stroke="rgb(230,230,230)"/>
            <line transform="matrix(1.000,0.000,0.000,1.000,0.000,0.000)"
                  x1="41.297" x2="43.297" y1="76.540" y2="76.540"
                  style="stroke-width: 0.5; stroke-linecap: round; stroke-linejoin: round; "
                  stroke="rgb(100,100,100)"/>
            <text x="39.297" fill="rgb(0,0,0)" y="82.040"
                  style="font-family: sans-serif; font-weight: normal; font-style: normal; font-size: 11px"
                  transform="matrix(1.000,0.000,0.000,1.000,0.000,0.000)"
                  text-anchor="end">
                8.0
            </text>
            <line transform="matrix(1.000,0.000,0.000,1.000,0.000,0.000)"
                  x1="43.297" x2="796.000" y1="41.000" y2="41.000"
                  style="stroke-width: 1; stroke-linecap: round; stroke-linejoin: round; "
                  stroke="rgb(230,230,230)"/>
            <line transform="matrix(1.000,0.000,0.000,1.000,0.000,0.000)"
                  x1="41.297" x2="43.297" y1="41.187" y2="41.187"
                  style="stroke-width: 0.5; stroke-linecap: round; stroke-linejoin: round; "
                  stroke="rgb(100,100,100)"/>
            <text x="39.297" fill="rgb(0,0,0)" y="46.687"
                  style="font-family: sans-serif; font-weight: normal; font-style: normal; font-size: 11px"
                  transform="matrix(1.000,0.000,0.000,1.000,0.000,0.000)"
                  text-anchor="end">
                8.2
            </text>
            <line transform="matrix(1.000,0.000,0.000,1.000,0.000,0.000)"
                  x1="43.297" x2="43.297" y1="35.000" y2="560.000"
                  style="stroke-width: 0.5; stroke-linecap: round; stroke-linejoin: round; "
                  stroke="rgb(100,100,100)"/>
            <text x="0.000" fill="rgb(0,0,0)" y="0.000"
                  style="font-family: sans-serif; font-weight: bold; font-style: normal; font-size: 12px"
                  transform="matrix(0.000,-1.000,1.000,0.000,20.000,297.500)"
                  text-anchor="middle">
                satisfaction_2018
            </text>
            <g class="dataArea" clip-path="url(#clip-1)">
                <rect fill="rgb(0, 0, 0)" x="43.296875" width="752.703125"
                      y="35" height="525" fill-opacity="0"/>
                <circle fill="rgb(64,64,64)" r="3" stroke-width="0.2"
                        cx="147.86533314184652" cy="76.54040404040393"
                        stroke="rgb(0,0,0)"/>
                <circle fill="rgb(64,64,64)" r="3" stroke-width="0.2"
                        cx="169.3048935501035" cy="147.2474747474747"
                        stroke="rgb(0,0,0)"/>
                <circle fill="rgb(64,64,64)" r="3" stroke-width="0.2"
                        cx="132.81693480777383" cy="536.1363636363636"
                        stroke="rgb(0,0,0)"/>
                <circle fill="rgb(64,64,64)" r="3" stroke-width="0.2"
                        cx="145.16155434270104" cy="76.54040404040393"
                        stroke="rgb(0,0,0)"/>
                <circle fill="rgb(64,64,64)" r="3" stroke-width="0.2"
                        cx="84.44469817950943" cy="235.63131313131316"
                        stroke="rgb(0,0,0)"/>
                <circle fill="rgb(64,64,64)" r="3" stroke-width="0.2"
                        cx="162.69758135652535" cy="182.60101010101"
                        stroke="rgb(0,0,0)"/>
                <circle fill="rgb(64,64,64)" r="3" stroke-width="0.2"
                        cx="761.7862215909091" cy="182.60101010101"
                        stroke="rgb(0,0,0)"/>
                <circle fill="rgb(64,64,64)" r="3" stroke-width="0.2"
                        cx="122.60995267134332" cy="111.89393939393938"
                        stroke="rgb(0,0,0)"/>
                <circle fill="rgb(64,64,64)" r="3" stroke-width="0.2"
                        cx="85.54473708908476" cy="253.30808080808077"
                        stroke="rgb(0,0,0)"/>
                <circle fill="rgb(64,64,64)" r="3" stroke-width="0.2"
                        cx="163.55095863888428" cy="359.36868686868684"
                        stroke="rgb(0,0,0)"/>
                <circle fill="rgb(64,64,64)" r="3" stroke-width="0.2"
                        cx="462.48973183839706" cy="200.27777777777777"
                        stroke="rgb(0,0,0)"/>
                <circle fill="rgb(64,64,64)" r="3" stroke-width="0.2"
                        cx="120.3047133472362" cy="58.86363636363632"
                        stroke="rgb(0,0,0)"/>
                <circle fill="rgb(64,64,64)" r="3" stroke-width="0.2"
                        cx="629.6619433525246" cy="200.27777777777777"
                        stroke="rgb(0,0,0)"/>
                <circle fill="rgb(64,64,64)" r="3" stroke-width="0.2"
                        cx="108.47077406141184" cy="377.0454545454546"
                        stroke="rgb(0,0,0)"/>
                <circle fill="rgb(64,64,64)" r="3" stroke-width="0.2"
                        cx="155.6158280641297" cy="341.69191919191917"
                        stroke="rgb(0,0,0)"/>
                <circle fill="rgb(64,64,64)" r="3" stroke-width="0.2"
                        cx="114.93176198234897" cy="58.86363636363632"
                        stroke="rgb(0,0,0)"/>
                <circle fill="rgb(64,64,64)" r="3" stroke-width="0.2"
                        cx="77.5106534090909" cy="94.2171717171716"
                        stroke="rgb(0,0,0)"/>
                <circle fill="rgb(64,64,64)" r="3" stroke-width="0.2"
                        cx="575.4180028635321" cy="235.63131313131316"
                        stroke="rgb(0,0,0)"/>
                <circle fill="rgb(64,64,64)" r="3" stroke-width="0.2"
                        cx="97.80873860578807" cy="359.36868686868684"
                        stroke="rgb(0,0,0)"/>
                <circle fill="rgb(64,64,64)" r="3" stroke-width="0.2"
                        cx="79.626225707391" cy="147.2474747474747"
                        stroke="rgb(0,0,0)"/>
                <circle fill="rgb(64,64,64)" r="3" stroke-width="0.2"
                        cx="90.56116550519076" cy="306.33838383838383"
                        stroke="rgb(0,0,0)"/>
                <circle fill="rgb(64,64,64)" r="3" stroke-width="0.2"
                        cx="78.60403631736727" cy="164.92424242424238"
                        stroke="rgb(0,0,0)"/>
                <circle fill="rgb(64,64,64)" r="3" stroke-width="0.2"
                        cx="217.4184993532988" cy="129.570707070707"
                        stroke="rgb(0,0,0)"/>
                <circle fill="rgb(64,64,64)" r="3" stroke-width="0.2"
                        cx="118.6170150054154" cy="76.54040404040393"
                        stroke="rgb(0,0,0)"/>
                <circle fill="rgb(64,64,64)" r="3" stroke-width="0.2"
                        cx="389.356573575853" cy="111.89393939393938"
                        stroke="rgb(0,0,0)"/>
                <circle fill="rgb(64,64,64)" r="3" stroke-width="0.2"
                        cx="159.82873704073268" cy="306.33838383838383"
                        stroke="rgb(0,0,0)"/>
                <circle fill="rgb(64,64,64)" r="3" stroke-width="0.2"
                        cx="235.99331017134426" cy="200.27777777777777"
                        stroke="rgb(0,0,0)"/>
                <circle fill="rgb(64,64,64)" r="3" stroke-width="0.2"
                        cx="132.46521114261913" cy="500.7828282828284"
                        stroke="rgb(0,0,0)"/>
                <circle fill="rgb(64,64,64)" r="3" stroke-width="0.2"
                        cx="158.928494214981" cy="111.89393939393938"
                        stroke="rgb(0,0,0)"/>
                <circle fill="rgb(64,64,64)" r="3" stroke-width="0.2"
                        cx="91.77731558063904" cy="200.27777777777777"
                        stroke="rgb(0,0,0)"/>
                <circle fill="rgb(64,64,64)" r="3" stroke-width="0.2"
                        cx="119.73481706665162" cy="235.63131313131316"
                        stroke="rgb(0,0,0)"/>
                <circle fill="rgb(64,64,64)" r="3" stroke-width="0.2"
                        cx="756.9284347798604" cy="483.1060606060606"
                        stroke="rgb(0,0,0)"/>
                <circle fill="rgb(64,64,64)" r="3" stroke-width="0.2"
                        cx="625.4713315658273" cy="147.2474747474747"
                        stroke="rgb(0,0,0)"/>
            </g>
            <rect fill="rgb(255,255,255)" x="0" width="325.515625" y="0"
                  height="31" fill-opacity="0.001"/>
            <text x="2"
                  style="font-family: sans-serif; font-weight: normal; font-style: normal; font-size: 24px"
                  y="24.14">
                Satisfaction versus Population
            </text>
        </g>
    </g>
    <g visibility="hidden" id="hiddenGroup"/>
</svg>