<!DOCTYPE svg PUBLIC "-//W3C//DTD SVG 1.1//EN"
    "http://www.w3.org/Graphics/SVG/1.1/DTD/svg11.dtd" >
<svg contentScriptType="text/ecmascript" width="800px"
     xmlns:xlink="http://www.w3.org/1999/xlink" zoomAndPan="magnify"
     style="height: 600px;" contentStyleType="text/css" id="chart_svg"
     height="600px" preserveAspectRatio="xMidYMid meet"
     xmlns="http://www.w3.org/2000/svg" version="1.0">
    <defs>
        <g>
            <g>
                <clipPath id="clip-1">
                    <rect x="43.296875" width="752.703125" y="35" height="525"/>
                </clipPath>
            </g>
        </g>
    </defs>
    <g>
        <g>
            <rect fill="rgb(255,255,255)" x="0" width="800" y="0" height="600"/>
            <rect fill="rgb(255,255,255)" x="43.296875" width="752.703125"
                  y="35" height="525"/>
            <line transform="matrix(1.000,0.000,0.000,1.000,0.000,0.000)"
                  x1="60.000" x2="60.000" y1="35.000" y2="560.000"
                  style="stroke-width: 1; stroke-linecap: round; stroke-linejoin: round; "
                  stroke="rgb(230,230,230)"/>
            <line transform="matrix(1.000,0.000,0.000,1.000,0.000,0.000)"
                  x1="59.621" x2="59.621" y1="560.000" y2="562.000"
                  style="stroke-width: 0.5; stroke-linecap: round; stroke-linejoin: round; "
                  stroke="rgb(100,100,100)"/>
            <text x="59.621" fill="rgb(0,0,0)" y="575.000"
                  style="font-family: sans-serif; font-weight: normal; font-style: normal; font-size: 11px"
                  transform="matrix(1.000,0.000,0.000,1.000,0.000,0.000)"
                  text-anchor="middle">
                30
            </text>
            <line transform="matrix(1.000,0.000,0.000,1.000,0.000,0.000)"
                  x1="104.000" x2="104.000" y1="35.000" y2="560.000"
                  style="stroke-width: 1; stroke-linecap: round; stroke-linejoin: round; "
                  stroke="rgb(230,230,230)"/>
            <line transform="matrix(1.000,0.000,0.000,1.000,0.000,0.000)"
                  x1="104.345" x2="104.345" y1="560.000" y2="562.000"
                  style="stroke-width: 0.5; stroke-linecap: round; stroke-linejoin: round; "
                  stroke="rgb(100,100,100)"/>
            <text x="104.345" fill="rgb(0,0,0)" y="575.000"
                  style="font-family: sans-serif; font-weight: normal; font-style: normal; font-size: 11px"
                  transform="matrix(1.000,0.000,0.000,1.000,0.000,0.000)"
                  text-anchor="middle">
                31
            </text>
            <line transform="matrix(1.000,0.000,0.000,1.000,0.000,0.000)"
                  x1="149.000" x2="149.000" y1="35.000" y2="560.000"
                  style="stroke-width: 1; stroke-linecap: round; stroke-linejoin: round; "
                  stroke="rgb(230,230,230)"/>
            <line transform="matrix(1.000,0.000,0.000,1.000,0.000,0.000)"
                  x1="149.069" x2="149.069" y1="560.000" y2="562.000"
                  style="stroke-width: 0.5; stroke-linecap: round; stroke-linejoin: round; "
                  stroke="rgb(100,100,100)"/>
            <text x="149.069" fill="rgb(0,0,0)" y="575.000"
                  style="font-family: sans-serif; font-weight: normal; font-style: normal; font-size: 11px"
                  transform="matrix(1.000,0.000,0.000,1.000,0.000,0.000)"
                  text-anchor="middle">
                32
            </text>
            <line transform="matrix(1.000,0.000,0.000,1.000,0.000,0.000)"
                  x1="194.000" x2="194.000" y1="35.000" y2="560.000"
                  style="stroke-width: 1; stroke-linecap: round; stroke-linejoin: round; "
                  stroke="rgb(230,230,230)"/>
            <line transform="matrix(1.000,0.000,0.000,1.000,0.000,0.000)"
                  x1="193.793" x2="193.793" y1="560.000" y2="562.000"
                  style="stroke-width: 0.5; stroke-linecap: round; stroke-linejoin: round; "
                  stroke="rgb(100,100,100)"/>
            <text x="193.793" fill="rgb(0,0,0)" y="575.000"
                  style="font-family: sans-serif; font-weight: normal; font-style: normal; font-size: 11px"
                  transform="matrix(1.000,0.000,0.000,1.000,0.000,0.000)"
                  text-anchor="middle">
                33
            </text>
            <line transform="matrix(1.000,0.000,0.000,1.000,0.000,0.000)"
                  x1="239.000" x2="239.000" y1="35.000" y2="560.000"
                  style="stroke-width: 1; stroke-linecap: round; stroke-linejoin: round; "
                  stroke="rgb(230,230,230)"/>
            <line transform="matrix(1.000,0.000,0.000,1.000,0.000,0.000)"
                  x1="238.517" x2="238.517" y1="560.000" y2="562.000"
                  style="stroke-width: 0.5; stroke-linecap: round; stroke-linejoin: round; "
                  stroke="rgb(100,100,100)"/>
            <text x="238.517" fill="rgb(0,0,0)" y="575.000"
                  style="font-family: sans-serif; font-weight: normal; font-style: normal; font-size: 11px"
                  transform="matrix(1.000,0.000,0.000,1.000,0.000,0.000)"
                  text-anchor="middle">
                34
            </text>
            <line transform="matrix(1.000,0.000,0.000,1.000,0.000,0.000)"
                  x1="283.000" x2="283.000" y1="35.000" y2="560.000"
                  style="stroke-width: 1; stroke-linecap: round; stroke-linejoin: round; "
                  stroke="rgb(230,230,230)"/>
            <line transform="matrix(1.000,0.000,0.000,1.000,0.000,0.000)"
                  x1="283.241" x2="283.241" y1="560.000" y2="562.000"
                  style="stroke-width: 0.5; stroke-linecap: round; stroke-linejoin: round; "
                  stroke="rgb(100,100,100)"/>
            <text x="283.241" fill="rgb(0,0,0)" y="575.000"
                  style="font-family: sans-serif; font-weight: normal; font-style: normal; font-size: 11px"
                  transform="matrix(1.000,0.000,0.000,1.000,0.000,0.000)"
                  text-anchor="middle">
                35
            </text>
            <line transform="matrix(1.000,0.000,0.000,1.000,0.000,0.000)"
                  x1="328.000" x2="328.000" y1="35.000" y2="560.000"
                  style="stroke-width: 1; stroke-linecap: round; stroke-linejoin: round; "
                  stroke="rgb(230,230,230)"/>
            <line transform="matrix(1.000,0.000,0.000,1.000,0.000,0.000)"
                  x1="327.964" x2="327.964" y1="560.000" y2="562.000"
                  style="stroke-width: 0.5; stroke-linecap: round; stroke-linejoin: round; "
                  stroke="rgb(100,100,100)"/>
            <text x="327.964" fill="rgb(0,0,0)" y="575.000"
                  style="font-family: sans-serif; font-weight: normal; font-style: normal; font-size: 11px"
                  transform="matrix(1.000,0.000,0.000,1.000,0.000,0.000)"
                  text-anchor="middle">
                36
            </text>
            <line transform="matrix(1.000,0.000,0.000,1.000,0.000,0.000)"
                  x1="373.000" x2="373.000" y1="35.000" y2="560.000"
                  style="stroke-width: 1; stroke-linecap: round; stroke-linejoin: round; "
                  stroke="rgb(230,230,230)"/>
            <line transform="matrix(1.000,0.000,0.000,1.000,0.000,0.000)"
                  x1="372.688" x2="372.688" y1="560.000" y2="562.000"
                  style="stroke-width: 0.5; stroke-linecap: round; stroke-linejoin: round; "
                  stroke="rgb(100,100,100)"/>
            <text x="372.688" fill="rgb(0,0,0)" y="575.000"
                  style="font-family: sans-serif; font-weight: normal; font-style: normal; font-size: 11px"
                  transform="matrix(1.000,0.000,0.000,1.000,0.000,0.000)"
                  text-anchor="middle">
                37
            </text>
            <line transform="matrix(1.000,0.000,0.000,1.000,0.000,0.000)"
                  x1="417.000" x2="417.000" y1="35.000" y2="560.000"
                  style="stroke-width: 1; stroke-linecap: round; stroke-linejoin: round; "
                  stroke="rgb(230,230,230)"/>
            <line transform="matrix(1.000,0.000,0.000,1.000,0.000,0.000)"
                  x1="417.412" x2="417.412" y1="560.000" y2="562.000"
                  style="stroke-width: 0.5; stroke-linecap: round; stroke-linejoin: round; "
                  stroke="rgb(100,100,100)"/>
            <text x="417.412" fill="rgb(0,0,0)" y="575.000"
                  style="font-family: sans-serif; font-weight: normal; font-style: normal; font-size: 11px"
                  transform="matrix(1.000,0.000,0.000,1.000,0.000,0.000)"
                  text-anchor="middle">
                38
            </text>
            <line transform="matrix(1.000,0.000,0.000,1.000,0.000,0.000)"
                  x1="462.000" x2="462.000" y1="35.000" y2="560.000"
                  style="stroke-width: 1; stroke-linecap: round; stroke-linejoin: round; "
                  stroke="rgb(230,230,230)"/>
            <line transform="matrix(1.000,0.000,0.000,1.000,0.000,0.000)"
                  x1="462.136" x2="462.136" y1="560.000" y2="562.000"
                  style="stroke-width: 0.5; stroke-linecap: round; stroke-linejoin: round; "
                  stroke="rgb(100,100,100)"/>
            <text x="462.136" fill="rgb(0,0,0)" y="575.000"
                  style="font-family: sans-serif; font-weight: normal; font-style: normal; font-size: 11px"
                  transform="matrix(1.000,0.000,0.000,1.000,0.000,0.000)"
                  text-anchor="middle">
                39
            </text>
            <line transform="matrix(1.000,0.000,0.000,1.000,0.000,0.000)"
                  x1="507.000" x2="507.000" y1="35.000" y2="560.000"
                  style="stroke-width: 1; stroke-linecap: round; stroke-linejoin: round; "
                  stroke="rgb(230,230,230)"/>
            <line transform="matrix(1.000,0.000,0.000,1.000,0.000,0.000)"
                  x1="506.860" x2="506.860" y1="560.000" y2="562.000"
                  style="stroke-width: 0.5; stroke-linecap: round; stroke-linejoin: round; "
                  stroke="rgb(100,100,100)"/>
            <text x="506.860" fill="rgb(0,0,0)" y="575.000"
                  style="font-family: sans-serif; font-weight: normal; font-style: normal; font-size: 11px"
                  transform="matrix(1.000,0.000,0.000,1.000,0.000,0.000)"
                  text-anchor="middle">
                40
            </text>
            <line transform="matrix(1.000,0.000,0.000,1.000,0.000,0.000)"
                  x1="552.000" x2="552.000" y1="35.000" y2="560.000"
                  style="stroke-width: 1; stroke-linecap: round; stroke-linejoin: round; "
                  stroke="rgb(230,230,230)"/>
            <line transform="matrix(1.000,0.000,0.000,1.000,0.000,0.000)"
                  x1="551.584" x2="551.584" y1="560.000" y2="562.000"
                  style="stroke-width: 0.5; stroke-linecap: round; stroke-linejoin: round; "
                  stroke="rgb(100,100,100)"/>
            <text x="551.584" fill="rgb(0,0,0)" y="575.000"
                  style="font-family: sans-serif; font-weight: normal; font-style: normal; font-size: 11px"
                  transform="matrix(1.000,0.000,0.000,1.000,0.000,0.000)"
                  text-anchor="middle">
                41
            </text>
            <line transform="matrix(1.000,0.000,0.000,1.000,0.000,0.000)"
                  x1="596.000" x2="596.000" y1="35.000" y2="560.000"
                  style="stroke-width: 1; stroke-linecap: round; stroke-linejoin: round; "
                  stroke="rgb(230,230,230)"/>
            <line transform="matrix(1.000,0.000,0.000,1.000,0.000,0.000)"
                  x1="596.308" x2="596.308" y1="560.000" y2="562.000"
                  style="stroke-width: 0.5; stroke-linecap: round; stroke-linejoin: round; "
                  stroke="rgb(100,100,100)"/>
            <text x="596.308" fill="rgb(0,0,0)" y="575.000"
                  style="font-family: sans-serif; font-weight: normal; font-style: normal; font-size: 11px"
                  transform="matrix(1.000,0.000,0.000,1.000,0.000,0.000)"
                  text-anchor="middle">
                42
            </text>
            <line transform="matrix(1.000,0.000,0.000,1.000,0.000,0.000)"
                  x1="641.000" x2="641.000" y1="35.000" y2="560.000"
                  style="stroke-width: 1; stroke-linecap: round; stroke-linejoin: round; "
                  stroke="rgb(230,230,230)"/>
            <line transform="matrix(1.000,0.000,0.000,1.000,0.000,0.000)"
                  x1="641.032" x2="641.032" y1="560.000" y2="562.000"
                  style="stroke-width: 0.5; stroke-linecap: round; stroke-linejoin: round; "
                  stroke="rgb(100,100,100)"/>
            <text x="641.032" fill="rgb(0,0,0)" y="575.000"
                  style="font-family: sans-serif; font-weight: normal; font-style: normal; font-size: 11px"
                  transform="matrix(1.000,0.000,0.000,1.000,0.000,0.000)"
                  text-anchor="middle">
                43
            </text>
            <line transform="matrix(1.000,0.000,0.000,1.000,0.000,0.000)"
                  x1="686.000" x2="686.000" y1="35.000" y2="560.000"
                  style="stroke-width: 1; stroke-linecap: round; stroke-linejoin: round; "
                  stroke="rgb(230,230,230)"/>
            <line transform="matrix(1.000,0.000,0.000,1.000,0.000,0.000)"
                  x1="685.756" x2="685.756" y1="560.000" y2="562.000"
                  style="stroke-width: 0.5; stroke-linecap: round; stroke-linejoin: round; "
                  stroke="rgb(100,100,100)"/>
            <text x="685.756" fill="rgb(0,0,0)" y="575.000"
                  style="font-family: sans-serif; font-weight: normal; font-style: normal; font-size: 11px"
                  transform="matrix(1.000,0.000,0.000,1.000,0.000,0.000)"
                  text-anchor="middle">
                44
            </text>
            <line transform="matrix(1.000,0.000,0.000,1.000,0.000,0.000)"
                  x1="730.000" x2="730.000" y1="35.000" y2="560.000"
                  style="stroke-width: 1; stroke-linecap: round; stroke-linejoin: round; "
                  stroke="rgb(230,230,230)"/>
            <line transform="matrix(1.000,0.000,0.000,1.000,0.000,0.000)"
                  x1="730.479" x2="730.479" y1="560.000" y2="562.000"
                  style="stroke-width: 0.5; stroke-linecap: round; stroke-linejoin: round; "
                  stroke="rgb(100,100,100)"/>
            <text x="730.479" fill="rgb(0,0,0)" y="575.000"
                  style="font-family: sans-serif; font-weight: normal; font-style: normal; font-size: 11px"
                  transform="matrix(1.000,0.000,0.000,1.000,0.000,0.000)"
                  text-anchor="middle">
                45
            </text>
            <line transform="matrix(1.000,0.000,0.000,1.000,0.000,0.000)"
                  x1="775.000" x2="775.000" y1="35.000" y2="560.000"
                  style="stroke-width: 1; stroke-linecap: round; stroke-linejoin: round; "
                  stroke="rgb(230,230,230)"/>
            <line transform="matrix(1.000,0.000,0.000,1.000,0.000,0.000)"
                  x1="775.203" x2="775.203" y1="560.000" y2="562.000"
                  style="stroke-width: 0.5; stroke-linecap: round; stroke-linejoin: round; "
                  stroke="rgb(100,100,100)"/>
            <text x="775.203" fill="rgb(0,0,0)" y="575.000"
                  style="font-family: sans-serif; font-weight: normal; font-style: normal; font-size: 11px"
                  transform="matrix(1.000,0.000,0.000,1.000,0.000,0.000)"
                  text-anchor="middle">
                46
            </text>
            <line transform="matrix(1.000,0.000,0.000,1.000,0.000,0.000)"
                  x1="43.297" x2="796.000" y1="560.000" y2="560.000"
                  style="stroke-width: 0.5; stroke-linecap: round; stroke-linejoin: round; "
                  stroke="rgb(100,100,100)"/>
            <text x="419.648" fill="rgb(0,0,0)" y="591.000"
                  style="font-family: sans-serif; font-weight: bold; font-style: normal; font-size: 12px"
                  transform="matrix(1.000,0.000,0.000,1.000,0.000,0.000)"
                  text-anchor="middle">
                Weekly_AvgWkHrs
            </text>
            <line transform="matrix(1.000,0.000,0.000,1.000,0.000,0.000)"
                  x1="43.297" x2="796.000" y1="536.000" y2="536.000"
                  style="stroke-width: 1; stroke-linecap: round; stroke-linejoin: round; "
                  stroke="rgb(230,230,230)"/>
            <line transform="matrix(1.000,0.000,0.000,1.000,0.000,0.000)"
                  x1="41.297" x2="43.297" y1="536.136" y2="536.136"
                  style="stroke-width: 0.5; stroke-linecap: round; stroke-linejoin: round; "
                  stroke="rgb(100,100,100)"/>
            <text x="39.297" fill="rgb(0,0,0)" y="541.636"
                  style="font-family: sans-serif; font-weight: normal; font-style: normal; font-size: 11px"
                  transform="matrix(1.000,0.000,0.000,1.000,0.000,0.000)"
                  text-anchor="end">
                5.4
            </text>
            <line transform="matrix(1.000,0.000,0.000,1.000,0.000,0.000)"
                  x1="43.297" x2="796.000" y1="501.000" y2="501.000"
                  style="stroke-width: 1; stroke-linecap: round; stroke-linejoin: round; "
                  stroke="rgb(230,230,230)"/>
            <line transform="matrix(1.000,0.000,0.000,1.000,0.000,0.000)"
                  x1="41.297" x2="43.297" y1="500.783" y2="500.783"
                  style="stroke-width: 0.5; stroke-linecap: round; stroke-linejoin: round; "
                  stroke="rgb(100,100,100)"/>
            <text x="39.297" fill="rgb(0,0,0)" y="506.283"
                  style="font-family: sans-serif; font-weight: normal; font-style: normal; font-size: 11px"
                  transform="matrix(1.000,0.000,0.000,1.000,0.000,0.000)"
                  text-anchor="end">
                5.6
            </text>
            <line transform="matrix(1.000,0.000,0.000,1.000,0.000,0.000)"
                  x1="43.297" x2="796.000" y1="465.000" y2="465.000"
                  style="stroke-width: 1; stroke-linecap: round; stroke-linejoin: round; "
                  stroke="rgb(230,230,230)"/>
            <line transform="matrix(1.000,0.000,0.000,1.000,0.000,0.000)"
                  x1="41.297" x2="43.297" y1="465.429" y2="465.429"
                  style="stroke-width: 0.5; stroke-linecap: round; stroke-linejoin: round; "
                  stroke="rgb(100,100,100)"/>
            <text x="39.297" fill="rgb(0,0,0)" y="470.929"
                  style="font-family: sans-serif; font-weight: normal; font-style: normal; font-size: 11px"
                  transform="matrix(1.000,0.000,0.000,1.000,0.000,0.000)"
                  text-anchor="end">
                5.8
            </text>
            <line transform="matrix(1.000,0.000,0.000,1.000,0.000,0.000)"
                  x1="43.297" x2="796.000" y1="430.000" y2="430.000"
                  style="stroke-width: 1; stroke-linecap: round; stroke-linejoin: round; "
                  stroke="rgb(230,230,230)"/>
            <line transform="matrix(1.000,0.000,0.000,1.000,0.000,0.000)"
                  x1="41.297" x2="43.297" y1="430.076" y2="430.076"
                  style="stroke-width: 0.5; stroke-linecap: round; stroke-linejoin: round; "
                  stroke="rgb(100,100,100)"/>
            <text x="39.297" fill="rgb(0,0,0)" y="435.576"
                  style="font-family: sans-serif; font-weight: normal; font-style: normal; font-size: 11px"
                  transform="matrix(1.000,0.000,0.000,1.000,0.000,0.000)"
                  text-anchor="end">
                6.0
            </text>
            <line transform="matrix(1.000,0.000,0.000,1.000,0.000,0.000)"
                  x1="43.297" x2="796.000" y1="395.000" y2="395.000"
                  style="stroke-width: 1; stroke-linecap: round; stroke-linejoin: round; "
                  stroke="rgb(230,230,230)"/>
            <line transform="matrix(1.000,0.000,0.000,1.000,0.000,0.000)"
                  x1="41.297" x2="43.297" y1="394.722" y2="394.722"
                  style="stroke-width: 0.5; stroke-linecap: round; stroke-linejoin: round; "
                  stroke="rgb(100,100,100)"/>
            <text x="39.297" fill="rgb(0,0,0)" y="400.222"
                  style="font-family: sans-serif; font-weight: normal; font-style: normal; font-size: 11px"
                  transform="matrix(1.000,0.000,0.000,1.000,0.000,0.000)"
                  text-anchor="end">
                6.2
            </text>
            <line transform="matrix(1.000,0.000,0.000,1.000,0.000,0.000)"
                  x1="43.297" x2="796.000" y1="359.000" y2="359.000"
                  style="stroke-width: 1; stroke-linecap: round; stroke-linejoin: round; "
                  stroke="rgb(230,230,230)"/>
            <line transform="matrix(1.000,0.000,0.000,1.000,0.000,0.000)"
                  x1="41.297" x2="43.297" y1="359.369" y2="359.369"
                  style="stroke-width: 0.5; stroke-linecap: round; stroke-linejoin: round; "
                  stroke="rgb(100,100,100)"/>
            <text x="39.297" fill="rgb(0,0,0)" y="364.869"
                  style="font-family: sans-serif; font-weight: normal; font-style: normal; font-size: 11px"
                  transform="matrix(1.000,0.000,0.000,1.000,0.000,0.000)"
                  text-anchor="end">
                6.4
            </text>
            <line transform="matrix(1.000,0.000,0.000,1.000,0.000,0.000)"
                  x1="43.297" x2="796.000" y1="324.000" y2="324.000"
                  style="stroke-width: 1; stroke-linecap: round; stroke-linejoin: round; "
                  stroke="rgb(230,230,230)"/>
            <line transform="matrix(1.000,0.000,0.000,1.000,0.000,0.000)"
                  x1="41.297" x2="43.297" y1="324.015" y2="324.015"
                  style="stroke-width: 0.5; stroke-linecap: round; stroke-linejoin: round; "
                  stroke="rgb(100,100,100)"/>
            <text x="39.297" fill="rgb(0,0,0)" y="329.515"
                  style="font-family: sans-serif; font-weight: normal; font-style: normal; font-size: 11px"
                  transform="matrix(1.000,0.000,0.000,1.000,0.000,0.000)"
                  text-anchor="end">
                6.6
            </text>
            <line transform="matrix(1.000,0.000,0.000,1.000,0.000,0.000)"
                  x1="43.297" x2="796.000" y1="289.000" y2="289.000"
                  style="stroke-width: 1; stroke-linecap: round; stroke-linejoin: round; "
                  stroke="rgb(230,230,230)"/>
            <line transform="matrix(1.000,0.000,0.000,1.000,0.000,0.000)"
                  x1="41.297" x2="43.297" y1="288.662" y2="288.662"
                  style="stroke-width: 0.5; stroke-linecap: round; stroke-linejoin: round; "
                  stroke="rgb(100,100,100)"/>
            <text x="39.297" fill="rgb(0,0,0)" y="294.162"
                  style="font-family: sans-serif; font-weight: normal; font-style: normal; font-size: 11px"
                  transform="matrix(1.000,0.000,0.000,1.000,0.000,0.000)"
                  text-anchor="end">
                6.8
            </text>
            <line transform="matrix(1.000,0.000,0.000,1.000,0.000,0.000)"
                  x1="43.297" x2="796.000" y1="253.000" y2="253.000"
                  style="stroke-width: 1; stroke-linecap: round; stroke-linejoin: round; "
                  stroke="rgb(230,230,230)"/>
            <line transform="matrix(1.000,0.000,0.000,1.000,0.000,0.000)"
                  x1="41.297" x2="43.297" y1="253.308" y2="253.308"
                  style="stroke-width: 0.5; stroke-linecap: round; stroke-linejoin: round; "
                  stroke="rgb(100,100,100)"/>
            <text x="39.297" fill="rgb(0,0,0)" y="258.808"
                  style="font-family: sans-serif; font-weight: normal; font-style: normal; font-size: 11px"
                  transform="matrix(1.000,0.000,0.000,1.000,0.000,0.000)"
                  text-anchor="end">
                7.0
            </text>
            <line transform="matrix(1.000,0.000,0.000,1.000,0.000,0.000)"
                  x1="43.297" x2="796.000" y1="218.000" y2="218.000"
                  style="stroke-width: 1; stroke-linecap: round; stroke-linejoin: round; "
                  stroke="rgb(230,230,230)"/>
            <line transform="matrix(1.000,0.000,0.000,1.000,0.000,0.000)"
                  x1="41.297" x2="43.297" y1="217.955" y2="217.955"
                  style="stroke-width: 0.5; stroke-linecap: round; stroke-linejoin: round; "
                  stroke="rgb(100,100,100)"/>
            <text x="39.297" fill="rgb(0,0,0)" y="223.455"
                  style="font-family: sans-serif; font-weight: normal; font-style: normal; font-size: 11px"
                  transform="matrix(1.000,0.000,0.000,1.000,0.000,0.000)"
                  text-anchor="end">
                7.2
            </text>
            <line transform="matrix(1.000,0.000,0.000,1.000,0.000,0.000)"
                  x1="43.297" x2="796.000" y1="183.000" y2="183.000"
                  style="stroke-width: 1; stroke-linecap: round; stroke-linejoin: round; "
                  stroke="rgb(230,230,230)"/>
            <line transform="matrix(1.000,0.000,0.000,1.000,0.000,0.000)"
                  x1="41.297" x2="43.297" y1="182.601" y2="182.601"
                  style="stroke-width: 0.5; stroke-linecap: round; stroke-linejoin: round; "
                  stroke="rgb(100,100,100)"/>
            <text x="39.297" fill="rgb(0,0,0)" y="188.101"
                  style="font-family: sans-serif; font-weight: normal; font-style: normal; font-size: 11px"
                  transform="matrix(1.000,0.000,0.000,1.000,0.000,0.000)"
                  text-anchor="end">
                7.4
            </text>
            <line transform="matrix(1.000,0.000,0.000,1.000,0.000,0.000)"
                  x1="43.297" x2="796.000" y1="147.000" y2="147.000"
                  style="stroke-width: 1; stroke-linecap: round; stroke-linejoin: round; "
                  stroke="rgb(230,230,230)"/>
            <line transform="matrix(1.000,0.000,0.000,1.000,0.000,0.000)"
                  x1="41.297" x2="43.297" y1="147.247" y2="147.247"
                  style="stroke-width: 0.5; stroke-linecap: round; stroke-linejoin: round; "
                  stroke="rgb(100,100,100)"/>
            <text x="39.297" fill="rgb(0,0,0)" y="152.747"
                  style="font-family: sans-serif; font-weight: normal; font-style: normal; font-size: 11px"
                  transform="matrix(1.000,0.000,0.000,1.000,0.000,0.000)"
                  text-anchor="end">
                7.6
            </text>
            <line transform="matrix(1.000,0.000,0.000,1.000,0.000,0.000)"
                  x1="43.297" x2="796.000" y1="112.000" y2="112.000"
                  style="stroke-width: 1; stroke-linecap: round; stroke-linejoin: round; "
                  stroke="rgb(230,230,230)"/>
            <line transform="matrix(1.000,0.000,0.000,1.000,0.000,0.000)"
                  x1="41.297" x2="43.297" y1="111.894" y2="111.894"
                  style="stroke-width: 0.5; stroke-linecap: round; stroke-linejoin: round; "
                  stroke="rgb(100,100,100)"/>
            <text x="39.297" fill="rgb(0,0,0)" y="117.394"
                  style="font-family: sans-serif; font-weight: normal; font-style: normal; font-size: 11px"
                  transform="matrix(1.000,0.000,0.000,1.000,0.000,0.000)"
                  text-anchor="end">
                7.8
            </text>
            <line transform="matrix(1.000,0.000,0.000,1.000,0.000,0.000)"
                  x1="43.297" x2="796.000" y1="77.000" y2="77.000"
                  style="stroke-width: 1; stroke-linecap: round; stroke-linejoin: round; "
                  stroke="rgb(230,230,230)"/>
            <line transform="matrix(1.000,0.000,0.000,1.000,0.000,0.000)"
                  x1="41.297" x2="43.297" y1="76.540" y2="76.540"
                  style="stroke-width: 0.5; stroke-linecap: round; stroke-linejoin: round; "
                  stroke="rgb(100,100,100)"/>
            <text x="39.297" fill="rgb(0,0,0)" y="82.040"
                  style="font-family: sans-serif; font-weight: normal; font-style: normal; font-size: 11px"
                  transform="matrix(1.000,0.000,0.000,1.000,0.000,0.000)"
                  text-anchor="end">
                8.0
            </text>
            <line transform="matrix(1.000,0.000,0.000,1.000,0.000,0.000)"
                  x1="43.297" x2="796.000" y1="41.000" y2="41.000"
                  style="stroke-width: 1; stroke-linecap: round; stroke-linejoin: round; "
                  stroke="rgb(230,230,230)"/>
            <line transform="matrix(1.000,0.000,0.000,1.000,0.000,0.000)"
                  x1="41.297" x2="43.297" y1="41.187" y2="41.187"
                  style="stroke-width: 0.5; stroke-linecap: round; stroke-linejoin: round; "
                  stroke="rgb(100,100,100)"/>
            <text x="39.297" fill="rgb(0,0,0)" y="46.687"
                  style="font-family: sans-serif; font-weight: normal; font-style: normal; font-size: 11px"
                  transform="matrix(1.000,0.000,0.000,1.000,0.000,0.000)"
                  text-anchor="end">
                8.2
            </text>
            <line transform="matrix(1.000,0.000,0.000,1.000,0.000,0.000)"
                  x1="43.297" x2="43.297" y1="35.000" y2="560.000"
                  style="stroke-width: 0.5; stroke-linecap: round; stroke-linejoin: round; "
                  stroke="rgb(100,100,100)"/>
            <text x="0.000" fill="rgb(0,0,0)" y="0.000"
                  style="font-family: sans-serif; font-weight: bold; font-style: normal; font-size: 12px"
                  transform="matrix(0.000,-1.000,1.000,0.000,20.000,297.500)"
                  text-anchor="middle">
                satisfaction_2018
            </text>
            <g class="dataArea" clip-path="url(#clip-1)">
                <rect fill="rgb(0, 0, 0)" x="43.296875" width="752.703125"
                      y="35" height="525" fill-opacity="0"/>
                <circle fill="rgb(64,64,64)" r="3" stroke-width="0.2"
                        cx="350.3263994696569" cy="76.54040404040393"
                        stroke="rgb(0,0,0)"/>
                <circle fill="rgb(64,64,64)" r="3" stroke-width="0.2"
                        cx="381.633156591249" cy="147.2474747474747"
                        stroke="rgb(0,0,0)"/>
                <circle fill="rgb(64,64,64)" r="3" stroke-width="0.2"
                        cx="538.166771591109" cy="536.1363636363636"
                        stroke="rgb(0,0,0)"/>
                <circle fill="rgb(64,64,64)" r="3" stroke-width="0.2"
                        cx="269.82343159134905" cy="76.54040404040393"
                        stroke="rgb(0,0,0)"/>
                <circle fill="rgb(64,64,64)" r="3" stroke-width="0.2"
                        cx="475.55325734792467" cy="235.63131313131316"
                        stroke="rgb(0,0,0)"/>
                <circle fill="rgb(64,64,64)" r="3" stroke-width="0.2"
                        cx="511.3323352262725" cy="182.60101010101"
                        stroke="rgb(0,0,0)"/>
                <circle fill="rgb(64,64,64)" r="3" stroke-width="0.2"
                        cx="216.15472946977692" cy="111.89393939393938"
                        stroke="rgb(0,0,0)"/>
                <circle fill="rgb(64,64,64)" r="3" stroke-width="0.2"
                        cx="426.35704659120904" cy="253.30808080808077"
                        stroke="rgb(0,0,0)"/>
                <circle fill="rgb(64,64,64)" r="3" stroke-width="0.2"
                        cx="596.3077944694369" cy="359.36868686868684"
                        stroke="rgb(0,0,0)"/>
                <circle fill="rgb(64,64,64)" r="3" stroke-width="0.2"
                        cx="403.99510159122906" cy="200.27777777777777"
                        stroke="rgb(0,0,0)"/>
                <circle fill="rgb(64,64,64)" r="3" stroke-width="0.2"
                        cx="363.7435323480247" cy="58.86363636363632"
                        stroke="rgb(0,0,0)"/>
                <circle fill="rgb(64,64,64)" r="3" stroke-width="0.2"
                        cx="386.1054773480047" cy="200.27777777777777"
                        stroke="rgb(0,0,0)"/>
                <circle fill="rgb(64,64,64)" r="3" stroke-width="0.2"
                        cx="488.9703902262925" cy="377.0454545454546"
                        stroke="rgb(0,0,0)"/>
                <circle fill="rgb(64,64,64)" r="3" stroke-width="0.2"
                        cx="488.9703902262925" cy="341.69191919191917"
                        stroke="rgb(0,0,0)"/>
                <circle fill="rgb(64,64,64)" r="3" stroke-width="0.2"
                        cx="350.3263994696569" cy="58.86363636363632"
                        stroke="rgb(0,0,0)"/>
                <circle fill="rgb(64,64,64)" r="3" stroke-width="0.2"
                        cx="471.08093659116906" cy="94.2171717171716"
                        stroke="rgb(0,0,0)"/>
                <circle fill="rgb(64,64,64)" r="3" stroke-width="0.2"
                        cx="381.633156591249" cy="235.63131313131316"
                        stroke="rgb(0,0,0)"/>
                <circle fill="rgb(64,64,64)" r="3" stroke-width="0.2"
                        cx="444.2465002263325" cy="359.36868686868684"
                        stroke="rgb(0,0,0)"/>
                <circle fill="rgb(64,64,64)" r="3" stroke-width="0.2"
                        cx="399.52261022637254" cy="147.2474747474747"
                        stroke="rgb(0,0,0)"/>
                <circle fill="rgb(64,64,64)" r="3" stroke-width="0.2"
                        cx="457.66380371280115" cy="306.33838383838383"
                        stroke="rgb(0,0,0)"/>
                <circle fill="rgb(64,64,64)" r="3" stroke-width="0.2"
                        cx="457.66380371280115" cy="164.92424242424238"
                        stroke="rgb(0,0,0)"/>
                <circle fill="rgb(64,64,64)" r="3" stroke-width="0.2"
                        cx="77.51065340909088" cy="129.570707070707"
                        stroke="rgb(0,0,0)"/>
                <circle fill="rgb(64,64,64)" r="3" stroke-width="0.2"
                        cx="229.57186234814475" cy="76.54040404040393"
                        stroke="rgb(0,0,0)"/>
                <circle fill="rgb(64,64,64)" r="3" stroke-width="0.2"
                        cx="524.7496387127412" cy="111.89393939393938"
                        stroke="rgb(0,0,0)"/>
                <circle fill="rgb(64,64,64)" r="3" stroke-width="0.2"
                        cx="484.4980694695369" cy="306.33838383838383"
                        stroke="rgb(0,0,0)"/>
                <circle fill="rgb(64,64,64)" r="3" stroke-width="0.2"
                        cx="488.9703902262925" cy="200.27777777777777"
                        stroke="rgb(0,0,0)"/>
                <circle fill="rgb(64,64,64)" r="3" stroke-width="0.2"
                        cx="632.0868723477846" cy="500.7828282828284"
                        stroke="rgb(0,0,0)"/>
                <circle fill="rgb(64,64,64)" r="3" stroke-width="0.2"
                        cx="345.85407871290124" cy="111.89393939393938"
                        stroke="rgb(0,0,0)"/>
                <circle fill="rgb(64,64,64)" r="3" stroke-width="0.2"
                        cx="471.08093659116906" cy="200.27777777777777"
                        stroke="rgb(0,0,0)"/>
                <circle fill="rgb(64,64,64)" r="3" stroke-width="0.2"
                        cx="506.86001446951684" cy="235.63131313131316"
                        stroke="rgb(0,0,0)"/>
                <circle fill="rgb(64,64,64)" r="3" stroke-width="0.2"
                        cx="761.786221590909" cy="483.1060606060606"
                        stroke="rgb(0,0,0)"/>
                <circle fill="rgb(64,64,64)" r="3" stroke-width="0.2"
                        cx="350.3263994696569" cy="147.2474747474747"
                        stroke="rgb(0,0,0)"/>
            </g>
            <rect fill="rgb(255,255,255)" x="0" width="619.390625" y="0"
                  height="31" fill-opacity="0.001"/>
            <text x="2"
                  style="font-family: sans-serif; font-weight: normal; font-style: normal; font-size: 24px"
                  y="24.14">
                Satisfaction versus Avg. Weekly working hours regression
            </text>
        </g>
    </g>
    <g visibility="hidden" id="hiddenGroup"/>
</svg>